<svg width="22" height="20" viewBox="0 0 22 20" fill="none" xmlns="http://www.w3.org/2000/svg">
<path d="M10.1192 0.85958C10.4191 -0.0606967 11.721 -0.0606959 12.0208 0.859581L13.7719 6.23398C13.906 6.64561 14.2898 6.92418 14.7227 6.92418H20.3835C21.3529 6.92418 21.7552 8.16521 20.9702 8.73398L16.3953 12.0486C16.0439 12.3033 15.8968 12.7555 16.0312 13.1682L17.7798 18.5349C18.0798 19.4557 17.0265 20.2227 16.2423 19.6544L11.6567 16.3321C11.3067 16.0784 10.8333 16.0784 10.4833 16.3321L5.89775 19.6544C5.1135 20.2227 4.06021 19.4557 4.36023 18.5348L6.1088 13.1682C6.24326 12.7555 6.09618 12.3033 5.74472 12.0486L1.16984 8.73398C0.384838 8.16521 0.787169 6.92418 1.75656 6.92418H7.41732C7.85024 6.92418 8.234 6.64561 8.36812 6.23398L10.1192 0.85958Z" fill="#070707"/>
</svg>
